<svg width="30" height="30" fill="none" xmlns="http://www.w3.org/2000/svg"><path d="M30 15c0 8.3-6.7 15-15 15S0 23.3 0 15 6.7 0 15 0s15 6.7 15 15zM9.3 13.1c-1.8.8-3.6 1.6-5.3 2.5-.9.6.3 1.1 1.4 1.5.2.1.3.1.5.2.1 0 .3.1.4.1 1.2.4 2.6.8 3.7.2 1.9-1.1 3.7-2.4 5.6-3.7.6-.4 1.2-.8 1.8-1.3 0 0 .1 0 .1-.1.5-.3 1.7-1.1 1.2 0-1 1.1-2.1 2.1-3.2 3-.7.7-1.5 1.3-2.2 2-.6.5-1.3 1.5-.6 2.2 1.6 1.1 3.2 2.2 4.9 3.3.5.4 1.1.7 1.6 1.1.9.7 2.3.1 2.5-1l.3-1.5c.5-2.8 1-5.7 1.4-8.5.1-.4.1-.9.2-1.3.2-1.1.3-2.2.4-3.3-.1-1.1-1.4-.8-2.2-.6-3.8 1.4-7.5 3-11.2 4.6-.4.3-.8.5-1.3.6z" fill="#fff"/></svg>