<svg width="90" height="90" fill="none" xmlns="http://www.w3.org/2000/svg"><circle cx="45" cy="45" r="45" fill="#fff"/><path fill-rule="evenodd" clip-rule="evenodd" d="M74 73H16V17h58v56zM62.039 40.736v-4.343c-.741-.319-4.984-1.49-8.335-.256-4.828 1.779-4.655 7.137-2.823 9.24 2.374 2.725 8.279 3.74 7.313 6.415-.5 1.385-2.837 1.626-4.896 1.161-1.918-.433-3.586-1.53-3.586-1.53v4.6s1.649.886 3.672 1.097c2.593.271 5.844-.24 7.472-1.637 2.9-2.488 3.344-8-2.15-10.559-4.57-2.13-4.495-2.737-4.463-3.83.043-1.463 3.224-2.363 7.796-.358zM37.386 28.547c3.804.128 9.394 1.82 9.394 9.038 0 7.217-6.84 9.585-13.08 9.07v10.219h-4.649v-28.23s4.532-.224 8.335-.097zm1.207 13.637c2.005-.707 3.308-2.225 3.308-4.583 0-2.5-1.326-4.194-3.354-4.672-2.196-.518-4.847-.213-4.847-.213v9.849s3.67.05 4.893-.381z" fill="#190A30"/></svg>