<svg width="90" height="90" fill="none" xmlns="http://www.w3.org/2000/svg"><path d="M51.3 81l3-23.6 1.9-2.4v-2.9l-7.8-12.7-33.5-23.2-2.7 1.1 2.7 3.2 5.5 3.7-.8 5.8 10.2 5.3 14.4 13.6-1.4 4.7v25l6.3 1.9-.8 5.9h11.5c-.8-.4-3-1.5-5.5-2.4-2.6-.8-3.1-2.3-3-3zM69 25.6c-1.1.3-1.6.7-1.7 1v2.7l-1.1 4-3.2-2.5c-4.6-2.1-14.9-7.1-19.1-10-.6-1.1-2.4-2.7-4.2 0-2.4 3.4 1.4 4.7 2.8 4 1.1-.5 1.2-1.3 1.1-1.6l1.4 1-.8 2.4 11.9 9.3-4.9 2.2 7.8 12 4.6-1.3-.8 3.9H69l6-6.6-2.5-8c1.6.2 4.8-.7 5.3-6.3.6-6.8-7.4-6.5-8.8-6.2z" fill="#63FF00"/><path d="M59.3 50.7c-1.2 0-2.2 1-2.2 2.2 0 1.2 1 2.2 2.2 2.2 1.2 0 2.2-1 2.2-2.2 0-1.2-1-2.2-2.2-2.2zm-1 13.7l1-7.9-2.2-.4-1 8 2.2.3zm3.2-9.4l2.8 7.5 2.1-.8-2.9-7.4-2 .7z" fill="#63FF00"/><path d="M45 90C20.2 90 0 69.8 0 45S20.2 0 45 0s45 20.2 45 45-20.2 45-45 45zm0-86.8C22 3.2 3.2 22 3.2 45 3.2 68 22 86.8 45 86.8 68 86.8 86.8 68 86.8 45 86.8 22 68 3.2 45 3.2z" fill="#63FF00"/></svg>