<svg width="90" height="90" fill="none" xmlns="http://www.w3.org/2000/svg"><path d="M45 0C20.1 0 0 20.1 0 45s20.1 45 45 45 45-20.1 45-45S69.9 0 45 0z" fill="#fff"/><path d="M18 45.6v-1.4c.5-.8 1-1.6 1.7-2.3 2.6-2.7 5.3-5.3 8-8 2.5-2.5 5-5 7.5-7.6 2 2 3.9 3.8 5.7 5.7.2.2.3.8.2 1.1-.3 1.8.3 3.3 1.8 4.4.3.2.6.8.6 1.2 0 4.3.1 8.6 0 13 0 .4-.3 1-.7 1.3-2 1.5-2.4 4.2-.8 6.1 1.6 1.9 4.4 2 6.1.2 1.8-1.8 1.6-4.5-.3-6.2-.4-.3-.7-1-.7-1.5-.1-4.2 0-8.5 0-12.7 0-.2.1-.4.2-.8 1.7 1.8 3.3 3.4 4.9 5 .2.2.3.8.2 1.2-.3 1.8.5 3.6 2.1 4.4 1.6.9 3.4.6 4.8-.6 1.4-1.3 1.7-3.2.9-4.8-.8-1.6-2.6-2.5-4.4-2.3-.4 0-1-.1-1.3-.4-1.6-1.5-3.2-3.1-4.7-4.7-.3-.3-.5-.9-.5-1.4.2-2.6-1.6-4.9-4.1-4.7-1.2.1-1.9-.3-2.7-1.1-1.4-1.4-2.8-2.8-4.2-4.3-.2-.2-.4-.5-.7-.8 1.2-1.1 2.3-2.3 3.4-3.3 1-.9 2.1-1.7 3.1-2.5h1.4c.8.5 1.7 1 2.3 1.6L70 41.6c.8.8 1.3 1.9 1.9 2.8v.7c-.6 1-1.1 2.1-1.9 2.8-7.3 7.4-14.6 14.7-21.9 21.9-.8.8-1.9 1.2-2.8 1.9h-.7c-.9-.6-2-1.1-2.8-1.9-7.4-7-14.8-14.5-22.2-21.9-.7-.6-1.1-1.5-1.6-2.3z" fill="#190A30"/></svg>