<svg width="128" height="128" fill="none" xmlns="http://www.w3.org/2000/svg"><circle cx="64" cy="64" r="64" fill="#fff"/><path d="M29.667 84V45.66h17.604c1.872 0 3.6.378 5.184 1.134a12.82 12.82 0 014.104 3.078 13.458 13.458 0 012.646 4.266c.648 1.584.972 3.186.972 4.806 0 1.476-.216 2.898-.648 4.266a13.291 13.291 0 01-1.89 3.78 13.433 13.433 0 01-2.97 2.916L62.769 84H51.213l-6.75-11.772h-4.266V84h-10.53zm10.53-20.952h6.642c.432 0 .846-.162 1.242-.486.396-.324.72-.792.972-1.404.288-.612.432-1.35.432-2.214 0-.9-.162-1.638-.486-2.214-.288-.612-.666-1.08-1.134-1.404-.432-.324-.864-.486-1.296-.486h-6.372v8.208zM82.53 84.324c-3.06 0-5.688-.504-7.884-1.512-2.196-1.008-3.996-2.394-5.4-4.158-1.368-1.764-2.376-3.78-3.024-6.048-.648-2.304-.972-4.716-.972-7.236V45.66h10.53v19.71c0 1.26.126 2.466.378 3.618.252 1.152.648 2.178 1.188 3.078.54.9 1.224 1.62 2.052 2.16.864.504 1.908.756 3.132.756 1.26 0 2.322-.252 3.186-.756a5.909 5.909 0 002.052-2.16c.54-.936.936-1.98 1.188-3.132a16.63 16.63 0 00.378-3.564V45.66h10.53v19.71c0 2.664-.36 5.148-1.08 7.452-.684 2.304-1.728 4.32-3.132 6.048-1.404 1.728-3.204 3.078-5.4 4.05-2.16.936-4.734 1.404-7.722 1.404z" fill="#190A30"/></svg>