<svg width="128" height="128" fill="none" xmlns="http://www.w3.org/2000/svg"><circle cx="64" cy="64" r="64" fill="#fff"/><path d="M46.698 84.324c-3.06 0-5.688-.504-7.884-1.512-2.196-1.008-3.996-2.394-5.4-4.158-1.368-1.764-2.376-3.78-3.024-6.048-.648-2.304-.972-4.716-.972-7.236V45.66h10.53v19.71c0 1.26.126 2.466.378 3.618.252 1.152.648 2.178 1.188 3.078.54.9 1.224 1.62 2.052 2.16.864.504 1.908.756 3.132.756 1.26 0 2.322-.252 3.186-.756a5.909 5.909 0 002.052-2.16c.54-.936.936-1.98 1.188-3.132a16.63 16.63 0 00.378-3.564V45.66h10.53v19.71c0 2.664-.36 5.148-1.08 7.452-.684 2.304-1.728 4.32-3.132 6.048-1.404 1.728-3.204 3.078-5.4 4.05-2.16.936-4.734 1.404-7.722 1.404zm30.77-38.664H89.24L101.444 84H90.752l-2.322-7.506H78.224L75.956 84H65.21l12.258-38.34zm9.288 23.814l-3.402-13.5-3.564 13.5h6.966z" fill="#190A30"/></svg>