<svg width="130" height="130" fill="none" xmlns="http://www.w3.org/2000/svg"><circle cx="65" cy="65" r="64" stroke="#fff" stroke-width="2" stroke-dasharray="10 10"/><circle cx="65" cy="65" r="45" fill="#fff"/><path d="M56.449 70.426V62.33l-3.344 6.144h-1.056l-3.36-6.144v8.096h-1.792v-11.36h1.92l3.76 6.944 3.76-6.944h1.92v11.36h-1.808zm7.765.16c-.661 0-1.253-.112-1.776-.336a4.253 4.253 0 01-1.36-.96 4.412 4.412 0 01-.864-1.376 4.564 4.564 0 01-.304-1.664c0-.586.102-1.141.304-1.664.203-.522.49-.981.864-1.376a4.06 4.06 0 011.36-.944 4.363 4.363 0 011.776-.352c.65 0 1.238.118 1.76.352.534.224.987.539 1.36.944.384.395.678.854.88 1.376a4.56 4.56 0 01.304 1.664c0 .587-.101 1.142-.304 1.664-.202.512-.496.97-.88 1.376a4.03 4.03 0 01-1.36.96c-.522.224-1.11.336-1.76.336zm-2.496-4.32c0 .534.112 1.014.336 1.44.224.427.523.763.896 1.008.374.246.795.368 1.264.368.459 0 .875-.122 1.248-.368a2.73 2.73 0 00.912-1.024 3.11 3.11 0 00.336-1.44 3.05 3.05 0 00-.336-1.44 2.607 2.607 0 00-.912-1.008 2.157 2.157 0 00-1.248-.384c-.47 0-.89.128-1.264.384a2.787 2.787 0 00-.896 1.024c-.224.416-.336.896-.336 1.44zm13.065-2.688c-.682.01-1.29.166-1.824.464-.522.299-.896.72-1.12 1.264v5.12h-1.76v-8.368h1.632v1.872a3.73 3.73 0 011.136-1.376c.47-.352.966-.544 1.488-.576h.256a.99.99 0 01.192.016v1.584zm4.932 7.008c-.65 0-1.243-.112-1.776-.336a4.38 4.38 0 01-1.36-.944 4.504 4.504 0 01-.896-1.376 4.562 4.562 0 01-.304-1.664c0-.79.181-1.51.544-2.16.363-.661.87-1.19 1.52-1.584.65-.405 1.413-.608 2.288-.608.875 0 1.627.203 2.256.608.64.395 1.136.918 1.488 1.568a4.337 4.337 0 01.512 2.464c-.01.107-.021.198-.032.272h-6.704c.032.49.165.923.4 1.296.245.363.555.65.928.864.373.203.773.304 1.2.304.47 0 .912-.117 1.328-.352.427-.234.715-.544.864-.928l1.504.432a3.248 3.248 0 01-.832 1.104c-.363.32-.795.576-1.296.768a4.764 4.764 0 01-1.632.272zm-2.512-4.928h5.056a2.51 2.51 0 00-.416-1.264 2.44 2.44 0 00-.912-.864 2.353 2.353 0 00-1.216-.32c-.437 0-.843.107-1.216.32-.363.203-.661.49-.896.864a2.603 2.603 0 00-.4 1.264z" fill="#190A30"/></svg>