<svg width="30" height="30" fill="none" xmlns="http://www.w3.org/2000/svg"><g clip-path="url(#clip0_657_5)"><path d="M19.6.7c-1.4-.5-3-.7-4.5-.7H15C6.7 0 0 6.7 0 15v.7c0 3.7 1.4 7.2 4.2 10.2 1.6 1.8 3.6 3.1 5.8 3.9.7.2 1.1.1 1.2-.4 0-.1.1-.2.1-.3v-2.7c-.4 0-.8.1-1.1.1-1.9.2-3.5-.6-4.2-2.4-.3-.7-1-1.2-1.5-1.8-.2-.2-.4-.4-.6-.7.8-.4 1.4-.2 1.9.2s.9.9 1.3 1.5c.9 1.3 2.3 1.8 3.8 1.1.2-.1.4-.3.5-.5.3-.5.5-1.1.7-1.7-.4-.1-.9-.2-1.3-.3-4.6-1-6.8-6.5-4.3-10.6.1-.2.2-.3.3-.5.2-.4.2-.8.2-1.3V8.4C6.8 8 6.9 7.5 7 7c0-.6.4-.8.9-.6.3.1.5.2.8.3.7.3 1.3.6 2 .9.2.1.5.2.7.2h.4c2.1-.5 4.2-.5 6.3 0 .3.1.7-.1 1.1-.2 1-.4 1.9-.9 2.9-1.2.4-.2.8 0 .9.6.1 1 .1 2 .1 3 0 .3-.1.6.1.8 1.2 1.5 1.4 3.2 1.3 5-.1 1.6-.5 2.9-1.3 3.9-.9 1.2-2.2 2-3.9 2.3-.4.1-.9.2-1.4.3.2.3.4.7.6 1 .3.8.4 1.7.3 2.5v3c0 .3 0 .6.1.8.2.6.6.6 1.4.3 5.8-2.1 9.7-8 9.7-14.2v-.6C30 8.3 25.7 2.7 19.6.7z" fill="#fff"/></g><defs><clipPath id="clip0_657_5"><path fill="#fff" d="M0 0h30v30H0z"/></clipPath></defs></svg>