<svg width="90" height="90" fill="none" xmlns="http://www.w3.org/2000/svg"><circle cx="45" cy="45" r="45" fill="#fff"/><path d="M44.935 74c-16.093.046-29.3-13.334-28.927-29.68.349-15.59 13.277-28.515 29.37-28.318 15.894.186 29.02 13.426 28.613 29.773-.407 15.531-13.219 28.318-29.056 28.224zM58.19 59.968c.081 0 .151-.011.233-.011.174-.547.337-1.094.512-1.64 1.047-3.363 2.14-6.702 3.118-10.076.663-2.304.791-4.654.128-7.004-.465-1.64-1.303-3.095-2.176-4.537-.745-1.222-1.466-2.455-1.699-3.91-.337-2.163.99-4.339 3.072-4.816.78-.175 1.63-.093 2.397-.128-4.072-4.933-12.439-9.633-22.295-8.19-8.227 1.221-14.335 5.63-18.664 12.75 1.129 0 2.13.012 3.118 0a227.34 227.34 0 004.887-.104c1.083-.035 2.165-.14 3.247-.186.57-.023.977.302 1.047.803.07.535-.244.942-.837 1.058-.28.059-.582.07-.862.105-.628.07-1.256.128-1.954.198 2.92 8.679 5.818 17.277 8.715 25.886.07-.011.151-.011.221-.023.07-.175.151-.337.21-.512l4.747-14.136c.186-.558.256-1.093.035-1.687a492.806 492.806 0 01-3.305-9.04c-.14-.407-.337-.523-.744-.546-.733-.047-1.467-.152-2.188-.256-.419-.059-.628-.361-.663-.768-.035-.419.105-.791.523-.943.245-.093.536-.116.792-.093 3.99.326 7.97.35 11.962 0 1-.081 1.454.187 1.49.85.034.64-.362.954-1.327 1.047l-2.328.22c2.851 8.61 5.725 17.15 8.588 25.69zm-21.83 9.099c-.035-.175-.046-.256-.07-.315-1.757-4.816-3.502-9.633-5.259-14.438-2.292-6.282-4.585-12.577-6.889-18.847-.07-.187-.36-.396-.57-.42-.477-.07-.977.024-1.454-.034-.443-.058-.605.116-.757.5-1.291 3.293-1.943 6.69-1.792 10.227.361 8.528 4.05 15.299 10.938 20.313 1.77 1.257 3.689 2.246 5.853 3.014zm18.083-.291c-2.56-7.027-5.085-13.95-7.61-20.872-.07 0-.14 0-.21.011l-7.598 21.99c5.283 1.22 10.391.849 15.418-1.13zm3.84-2.013c5.073-2.99 10.694-9.32 11.904-18.22.733-5.351-.14-10.435-2.63-15.229.047 2.327.163 4.666-.407 6.946-.477 1.931-1.117 3.816-1.757 5.7-1.932 5.678-3.898 11.333-5.842 16.998-.419 1.222-.814 2.455-1.268 3.805z" fill="#190A30"/><path d="M58.189 59.968c-2.863-8.54-5.737-17.079-8.623-25.677.838-.081 1.583-.15 2.328-.22.965-.094 1.361-.408 1.326-1.048-.035-.675-.489-.942-1.49-.849-3.99.337-7.97.326-11.961 0a2.027 2.027 0 00-.791.093c-.42.151-.559.512-.524.942.035.408.244.71.663.768.733.105 1.455.21 2.188.256.395.024.593.152.745.547a757.913 757.913 0 003.304 9.04c.221.593.151 1.129-.035 1.687l-4.747 14.136c-.059.174-.14.337-.21.512-.07.011-.151.011-.22.023-2.898-8.61-5.796-17.207-8.716-25.886.698-.07 1.326-.14 1.954-.198.291-.035.582-.047.862-.105.593-.116.907-.524.837-1.059-.07-.5-.477-.826-1.047-.803-1.082.047-2.164.152-3.246.187-1.63.058-3.259.081-4.888.104-1 .012-2.001 0-3.118 0 4.317-7.131 10.438-11.53 18.653-12.74 9.856-1.454 18.222 3.258 22.295 8.191-.757.035-1.606-.046-2.397.128-2.083.466-3.421 2.653-3.072 4.817.232 1.454.954 2.687 1.699 3.909.884 1.443 1.722 2.897 2.175 4.537.664 2.35.536 4.7-.128 7.004-.977 3.374-2.07 6.725-3.118 10.076-.175.546-.337 1.093-.512 1.64-.023-.023-.105-.023-.186-.011zM36.36 69.067c-2.153-.768-4.085-1.757-5.842-3.037-6.889-5.014-10.577-11.786-10.938-20.314-.151-3.525.512-6.934 1.792-10.226.151-.384.314-.559.756-.5.477.058.978-.024 1.455.034.21.024.5.233.57.42 2.316 6.282 4.596 12.564 6.889 18.847 1.757 4.817 3.502 9.633 5.26 14.438.01.082.01.163.057.338z" fill="#fff"/><path d="M54.442 68.776c-5.015 1.99-10.123 2.35-15.418 1.117 2.548-7.365 5.073-14.671 7.599-21.99.07 0 .14 0 .209-.011 2.513 6.922 5.038 13.845 7.61 20.884zm3.84-2.013c.454-1.35.85-2.583 1.268-3.805 1.944-5.665 3.91-11.331 5.842-16.997.64-1.885 1.28-3.782 1.757-5.701.57-2.269.442-4.607.407-6.946 2.49 4.794 3.363 9.878 2.63 15.23-1.21 8.9-6.83 15.229-11.904 18.219z" fill="#fff"/></svg>