<svg width="30" height="30" fill="none" xmlns="http://www.w3.org/2000/svg"><path d="M15 0C6.716 0 0 6.716 0 15c0 8.284 6.716 15 15 15 8.284 0 15-6.716 15-15 0-8.284-6.716-15-15-15zm7.921 21.887l-1.2 1.2c-.215.215-.843.349-.863.349-3.8.033-7.458-1.46-10.146-4.148a14.191 14.191 0 01-4.15-10.18c0-.002.138-.612.352-.824l1.201-1.201c.44-.442 1.284-.641 1.875-.443l.253.084c.59.197 1.209.85 1.372 1.45l.604 2.217c.163.603-.057 1.46-.496 1.9l-.802.801a8.518 8.518 0 005.99 5.992l.8-.802c.442-.442 1.299-.662 1.9-.499l2.217.606c.6.166 1.253.78 1.45 1.37l.085.256c.195.59-.003 1.434-.442 1.872z" fill="#F2F2F2"/></svg>