<svg width="90" height="90" fill="none" xmlns="http://www.w3.org/2000/svg"><circle cx="45" cy="45" r="45" fill="#fff"/><path d="M51.171 22.264c0 1.393-.454 2.68-1.223 3.72a6.87 6.87 0 014.75 6.534v1.856h-6.125a3.62 3.62 0 00-7.239 0v13.364H35.21v-15.22a6.87 6.87 0 014.675-6.51 6.264 6.264 0 1111.286-3.744z" fill="#190A30"/><path d="M42.355 41.52h13.549v.01a3.62 3.62 0 01-.186 7.227v6.126h1.764a6.87 6.87 0 006.534-4.75 6.264 6.264 0 10-.025-10.063 6.87 6.87 0 00-6.51-4.675H42.356v6.125z" fill="#190A30"/><path d="M54.698 42.54h-6.125v13.92a3.62 3.62 0 01-7.239 0v-.556H35.21v2.506a6.869 6.869 0 004.196 6.328 6.264 6.264 0 1011.02.031 6.87 6.87 0 004.272-6.36V42.542z" fill="#190A30"/><path d="M47.552 48.758v6.125H31.59a6.87 6.87 0 01-6.36-4.272 6.264 6.264 0 11.032-11.02 6.869 6.869 0 016.328-4.196h2.599v6.125h-.65a3.62 3.62 0 000 7.238h14.013z" fill="#190A30"/></svg>