<svg width="90" height="91" fill="none" xmlns="http://www.w3.org/2000/svg"><circle cx="45" cy="46" r="45" fill="#fff"/><path d="M26.654 21.502v-8.453h2.99v2.9h2.279v-2.9h3.037v8.453h-3.037V18.7h-2.278v2.8h-2.99zm9.398-5.554V13.05h7.451v2.9h-2.325v5.553h-2.895V15.95h-2.231zM47.68 13.05h-2.895v8.452h2.705v-4.08l1.804 2.556 1.66-2.555v4.079h2.943v-8.453h-2.942l-1.661 2.9-1.614-2.9zm7.499 8.304V13h2.895v5.651h3.702v2.703h-6.597zM66 25.236H23l3.987 45.457L44.357 76l17.656-5.307L66 25.236z" fill="#190A30"/><path d="M32.635 51.626L31.02 34.77h27.005l-.569 5.504H37.049l.522 5.553h19.506l-1.471 17.15-10.869 3.342-11.01-3.342-.665-8.698h5.173l.522 4.374 5.98 1.818 5.886-1.818.427-7.027H32.635z" fill="#fff"/></svg>