<svg width="90" height="90" fill="none" xmlns="http://www.w3.org/2000/svg"><circle cx="45" cy="45" r="45" fill="#fff"/><path fill-rule="evenodd" clip-rule="evenodd" d="M31.5 18A13.5 13.5 0 0018 31.5v27A13.5 13.5 0 0031.5 72h27A13.5 13.5 0 0072 58.5v-27A13.5 13.5 0 0058.5 18h-27zm3.578 40.5h11.728c6.088 0 9.747-3.065 9.747-8.087 0-3.719-2.569-6.466-6.426-6.864v-.338c2.808-.472 5.001-3.139 5.001-6.129 0-4.387-3.223-7.121-8.579-7.121H35.078V58.5zm4.43-16.453V33.72h6.008c3.284 0 5.205 1.542 5.205 4.175 0 2.706-2.039 4.15-5.954 4.15H39.51zm0 12.697h6.407c3.996 0 6.108-1.62 6.108-4.648 0-2.987-2.193-4.55-6.365-4.55h-6.15v9.198z" fill="#190A30"/></svg>