<svg width="90" height="90" fill="none" xmlns="http://www.w3.org/2000/svg"><circle cx="45" cy="45" r="45" fill="#fff"/><path d="M45 74c16.016 0 29-12.984 29-29S61.016 16 45 16 16 28.984 16 45s12.984 29 29 29z" fill="#190A30"/><path d="M45 70.778c-14.214 0-25.778-11.564-25.778-25.778 0-14.214 11.564-25.778 25.778-25.778 14.214 0 25.778 11.564 25.778 25.778 0 14.214-11.564 25.778-25.778 25.778z" fill="#fff"/><path d="M59.5 42.96V30.53h-29v12.43h3.712v4.139H30.5v12.43h29v-12.43h-3.712v-4.14H59.5zm-8.905-9.184a2.968 2.968 0 110 5.936 2.968 2.968 0 010-5.936zm-16.97.74h8.344v1.208h-8.344v-1.209zm0 4.458v-1.208h8.344v1.208h-8.344zm8.344 16.569h-8.344v-1.208h8.344v1.208zm0-3.25h-8.344v-1.209h8.344v1.209zm8.626 3.989a2.968 2.968 0 110-5.936 2.968 2.968 0 010 5.936zm3.985-9.183H35.42v-4.14h19.16v4.14z" fill="#190A30"/></svg>