<svg width="90" height="90" fill="none" xmlns="http://www.w3.org/2000/svg"><circle cx="45" cy="45" r="45" fill="#fff"/><path fill-rule="evenodd" clip-rule="evenodd" d="M61.867 25.773l-1.912 4.631c-.256.622-.385.933-.344 1.235.041.301.264.586.71 1.155a20.296 20.296 0 012.717 4.611c.286.676.43 1.015.673 1.193.243.178.574.205 1.237.258l4.917.398c.923.075 1.385.112 1.67.421.285.31.294.784.314 1.733l.142 7.036c.02.949.03 1.423-.242 1.744-.272.321-.732.378-1.652.492l-4.955.615c-.655.081-.982.122-1.217.308-.235.186-.365.527-.627 1.208a20.312 20.312 0 01-2.601 4.762c-.43.586-.646.879-.677 1.182-.032.303.107.61.385 1.226l2.103 4.65c.39.861.584 1.292.46 1.698-.123.405-.522.647-1.32 1.13l-5.917 3.578c-.797.482-1.196.723-1.603.638-.407-.086-.68-.468-1.229-1.233l-2.946-4.113c-.392-.547-.588-.82-.863-.939-.274-.118-.63-.066-1.339.038a19.43 19.43 0 01-4.866.097c-.708-.075-1.063-.112-1.331.016-.27.127-.455.406-.826.963l-2.8 4.198c-.522.784-.784 1.176-1.187 1.275-.404.1-.81-.128-1.624-.583l-6.031-3.371c-.814-.455-1.22-.682-1.357-1.083-.137-.402.044-.839.404-1.713l1.903-4.61c.26-.63.389-.943.346-1.247-.042-.304-.27-.59-.726-1.16a20.293 20.293 0 01-2.778-4.636c-.289-.67-.433-1.004-.675-1.18-.243-.176-.572-.203-1.23-.256l-4.837-.392c-.924-.075-1.386-.112-1.67-.421-.286-.31-.295-.784-.315-1.732l-.142-7.037c-.02-.949-.03-1.423.242-1.744.272-.321.732-.378 1.652-.492l4.759-.59c.66-.082.991-.123 1.227-.312.236-.188.365-.533.623-1.222a20.308 20.308 0 012.697-4.962c.434-.587.651-.88.683-1.184.032-.304-.107-.613-.386-1.23l-2.014-4.453c-.389-.861-.584-1.292-.46-1.698.123-.406.522-.647 1.32-1.13l5.917-3.578c.798-.482 1.197-.723 1.603-.638.407.085.68.468 1.229 1.233l2.845 3.972c.392.546.587.82.861.938.275.118.629.066 1.338-.036a19.43 19.43 0 015.023-.072c.715.082 1.073.124 1.345-.004.272-.127.46-.409.835-.972l2.724-4.084c.522-.784.784-1.176 1.187-1.275.404-.1.81.128 1.623.582l6.032 3.372c.813.455 1.22.682 1.357 1.083.136.402-.044.839-.404 1.713zM43.472 56.016c5.67.864 10.95-3.143 11.794-8.951.844-5.808-3.068-11.216-8.738-12.08-5.67-.865-10.951 3.142-11.795 8.95-.844 5.808 3.069 11.216 8.74 12.08z" fill="#190A30"/><path d="M50.56 45.564c0 3.084-2.44 5.585-5.452 5.585-3.011 0-5.452-2.5-5.452-5.585 0-3.084 2.441-5.585 5.452-5.585 3.012 0 5.453 2.5 5.453 5.585z" fill="#190A30"/></svg>