<svg width="90" height="90" fill="none" xmlns="http://www.w3.org/2000/svg"><path d="M76.3 35.2c1.3-.9 1.7-1.8 1.5-2.9-.2-.9-1.3-1.8-2.9-1.9-1.2-.1-3.3-.1-4.9 0-.7-1.2-1.5-2.4-2.4-3.6L66 24.7c-2.5-3.4-6.4-5.4-10.6-5.4h-21c-4.3 0-8.3 2.1-10.7 5.6l-1.3 1.9c-.8 1.2-1.6 2.4-2.3 3.6h-4.8c-1.6.1-2.7 1-2.9 1.9-.2 1.1.1 2 1.5 2.9.6.4 1.9.7 3.3.9C14 43 12.5 50.4 12.5 58v2.7c0 3 2.4 5.5 5.5 5.5h2.9c1.4 0 2.6-1.2 2.6-2.6 0-1.4 1.2-2.6 2.6-2.6h38.1c1.4 0 2.6 1.2 2.6 2.6 0 1.4 1.2 2.6 2.6 2.6h3c3.1 0 5.6-2.5 5.6-5.6v-2.4c0-7.7-1.7-15.2-4.8-22.1 1.2-.2 2.5-.5 3.1-.9zm-54.4-1l5.5-8.1c1.6-2.3 4.2-3.7 7-3.7h21.3c3 0 5.7 1.6 7.2 4.1l4.7 7.8c.4.6-.1 1.4-.8 1.4H22.7c-.8 0-1.2-.8-.8-1.5zm4.9 14.4h-.4c-2 .1-2.2.1-5.5 0-2-.1-3.6-1.6-3.6-3.6s1.7-3.6 3.7-3.6c.5 0 1 .1 1.4.3 3 1.1 3.2 1.2 5 2.1l.3.2c.9.4 1.5 1.3 1.5 2.3 0 1.2-1 2.3-2.4 2.3zm25.3 8.5H37.7c-1 0-1.8-.8-1.8-1.8s.8-1.8 1.8-1.8h14.4c1 0 1.8.8 1.8 1.8s-.8 1.8-1.8 1.8zm17-8.5c-3.3.1-3.5.1-5.5 0h-.4c-1.4 0-2.5-1.1-2.5-2.5 0-1 .6-1.9 1.5-2.3l.3-.2c1.8-.8 2-.9 5-2.1.4-.2.9-.3 1.4-.3 2.1 0 3.7 1.6 3.7 3.6.1 2.2-1.5 3.8-3.5 3.8z" fill="#63FF00"/><path d="M45 90C20.2 90 0 69.8 0 45S20.2 0 45 0s45 20.2 45 45-20.2 45-45 45zm0-86.8C22 3.2 3.2 22 3.2 45 3.2 68 22 86.8 45 86.8 68 86.8 86.8 68 86.8 45 86.8 22 68 3.2 45 3.2z" fill="#63FF00"/></svg>