<svg width="90" height="90" fill="none" xmlns="http://www.w3.org/2000/svg"><circle cx="45" cy="45" r="45" fill="#fff"/><path d="M42.502 33.8C29.579 35.217 20.76 28.917 18 26c2.084 4.746 10 8.5 13.953 10.04C36.07 37.642 39.46 38.975 48 38.776c8.54-.199 13.204-.456 14.633 0 .588.188 2.748.697 2.143 2.987-.605 2.29-6.388 8.56-9.204 11.408l15.088-13.15c.84-.954 1.992-2.49.882-3.983C70.156 34.172 68 31 42.502 33.8zm11.515 26.3c0 2.154-1.769 3.9-3.95 3.9-2.182 0-3.951-1.746-3.951-3.9 0-2.153 1.769-3.9 3.95-3.9 2.182 0 3.951 1.747 3.951 3.9zm-17.735 0c0 2.154-1.769 3.9-3.95 3.9-2.183 0-3.951-1.746-3.951-3.9 0-2.153 1.768-3.9 3.95-3.9 2.182 0 3.95 1.747 3.95 3.9z" fill="#190A30"/></svg>